<svg width="15" height="20" viewBox="0 0 15 20" fill="none" xmlns="http://www.w3.org/2000/svg">
<path fill-rule="evenodd" clip-rule="evenodd" d="M7.38095 20L6.16499 18.7752C5.13344 17.7362 3.64323 16.085 2.39652 14.2204C1.20026 12.4312 0 10.1155 0 7.81453C0 3.50437 3.32482 0 7.38095 0C11.4371 0 14.7619 3.50437 14.7619 7.81453C14.7619 10.0697 13.5569 12.3885 12.3688 14.1781C11.1254 16.0511 9.63707 17.7275 8.59691 18.7752L7.38095 20ZM1.76727 7.81453C1.76727 11.1789 5.41616 15.4338 7.38095 17.4128C9.34574 15.4338 12.9946 11.0799 12.9946 7.81453C12.9946 4.54912 10.4685 1.87743 7.38095 1.87743C4.29343 1.87743 1.76727 4.54912 1.76727 7.81453Z" fill="white"/>
<circle cx="7.61863" cy="6.66648" r="1.90476" fill="white"/>
</svg>
