<svg width="66" height="82" viewBox="0 0 66 82" fill="none" xmlns="http://www.w3.org/2000/svg">
<path d="M30.25 0.5C22.4276 0.5 14.9247 3.60163 9.39199 9.12407C3.85915 14.6467 0.75 22.1379 0.75 29.95C0.75 39.0477 5.70089 49.5588 11.1378 58.4568C16.6426 67.466 22.9438 75.2895 26.1831 79.1238C28.3273 81.6619 32.1727 81.6619 34.3169 79.1238C35.1293 78.1622 36.1343 76.9496 37.2711 75.5304C38.4187 74.0975 37.3858 72 35.55 72C34.5421 72 33.486 72.2623 32.8523 73.0461C31.9597 74.1503 31.163 75.1093 30.4975 75.8971C30.4086 76.0022 30.3201 76.0274 30.25 76.0274C30.1799 76.0274 30.0913 76.0022 30.0025 75.8971C26.8409 72.1547 20.7207 64.5505 15.4044 55.8498C10.0201 47.0379 5.75 37.5571 5.75 29.95C5.75 23.467 8.33011 17.2485 12.9242 12.6629C17.5185 8.0771 23.7507 5.5 30.25 5.5C36.7493 5.5 42.9815 8.0771 47.5757 12.6629C52.1699 17.2485 54.75 23.467 54.75 29.95C54.75 31.8306 54.489 33.8258 54.0148 35.897C54.0048 35.9406 54.061 35.9705 54.0926 35.9389C54.6843 35.3472 55.4867 35.0149 56.3235 35.0149C57.1603 35.0149 57.9627 35.3473 58.5544 35.9389C58.7393 36.1238 59.0948 36.0529 59.145 35.7964C59.5349 33.8045 59.75 31.8465 59.75 29.95C59.75 22.1379 56.6408 14.6467 51.108 9.12407C45.5753 3.60163 38.0724 0.5 30.25 0.5Z" fill="white"/>
<path d="M41.6105 37C41.9168 37 42.2106 37.1217 42.4272 37.3383C42.6438 37.5549 42.7654 37.8487 42.7654 38.155V40.3148H55.1685V38.1698C55.1685 37.8635 55.2902 37.5697 55.5068 37.3531C55.7234 37.1365 56.0172 37.0149 56.3235 37.0149C56.6298 37.0149 56.9236 37.1365 57.1402 37.3531C57.3568 37.5697 57.4785 37.8635 57.4785 38.1698V40.3148H61.95C62.8249 40.3148 63.664 40.6623 64.2829 41.2808C64.9017 41.8993 65.2496 42.7383 65.25 43.6132V66.7017C65.2496 67.5766 64.9017 68.4155 64.2829 69.034C63.664 69.6525 62.8249 70 61.95 70H35.55C34.6751 70 33.836 69.6525 33.2171 69.034C32.5983 68.4155 32.2504 67.5766 32.25 66.7017V43.6132C32.2504 42.7383 32.5983 41.8993 33.2171 41.2808C33.836 40.6623 34.6751 40.3148 35.55 40.3148H40.4555V38.1534C40.4559 37.8473 40.5778 37.554 40.7943 37.3377C41.0109 37.1215 41.3044 37 41.6105 37ZM34.56 49.7743V66.7017C34.56 66.8317 34.5856 66.9604 34.6354 67.0805C34.6851 67.2006 34.758 67.3098 34.85 67.4017C34.9419 67.4936 35.051 67.5665 35.1711 67.6163C35.2913 67.666 35.42 67.6917 35.55 67.6917H61.95C62.08 67.6917 62.2087 67.666 62.3289 67.6163C62.449 67.5665 62.5581 67.4936 62.65 67.4017C62.742 67.3098 62.8149 67.2006 62.8646 67.0805C62.9144 66.9604 62.94 66.8317 62.94 66.7017V49.7974L34.56 49.7743ZM41.8753 61.1213C42.6344 61.1213 43.2505 61.7367 43.2505 62.4958C43.2505 63.2549 42.6344 63.8703 41.8753 63.8703C41.1162 63.8703 40.5 63.2549 40.5 62.4958C40.5 61.7367 41.1162 61.1213 41.8753 61.1213ZM48.75 61.1213C49.5091 61.1213 50.1245 61.7367 50.1245 62.4958C50.1245 63.2549 49.5091 63.8703 48.75 63.8703C47.9909 63.8703 47.3755 63.2549 47.3755 62.4958C47.3755 61.7367 47.9909 61.1213 48.75 61.1213ZM55.6247 61.1213C56.3838 61.1213 57 61.7367 57 62.4958C57 63.2549 56.3838 63.8703 55.6247 63.8703C54.8656 63.8703 54.2495 63.2549 54.2495 62.4958C54.2495 61.7367 54.8656 61.1213 55.6247 61.1213ZM41.8753 54.5593C42.6344 54.5593 43.2505 55.1747 43.2505 55.9338C43.2505 56.6928 42.6344 57.3082 41.8753 57.3082C41.1162 57.3082 40.5 56.6928 40.5 55.9338C40.5 55.1747 41.1162 54.5593 41.8753 54.5593ZM48.75 54.5593C49.5091 54.5593 50.1245 55.1747 50.1245 55.9338C50.1245 56.6928 49.5091 57.3082 48.75 57.3082C47.9909 57.3082 47.3755 56.6928 47.3755 55.9338C47.3755 55.1747 47.9909 54.5593 48.75 54.5593ZM55.6247 54.5593C56.3838 54.5593 57 55.1747 57 55.9338C57 56.6928 56.3838 57.3082 55.6247 57.3082C54.8656 57.3082 54.2495 56.6928 54.2495 55.9338C54.2495 55.1747 54.8656 54.5593 55.6247 54.5593ZM40.4555 42.6232H35.55C35.42 42.6232 35.2913 42.6488 35.1711 42.6986C35.051 42.7483 34.9419 42.8212 34.85 42.9132C34.758 43.0051 34.6851 43.1142 34.6354 43.2343C34.5856 43.3545 34.56 43.4832 34.56 43.6132V47.466L62.94 47.489V43.6132C62.94 43.4832 62.9144 43.3545 62.8646 43.2343C62.8149 43.1142 62.742 43.0051 62.65 42.9132C62.5581 42.8212 62.449 42.7483 62.3289 42.6986C62.2087 42.6488 62.08 42.6232 61.95 42.6232H57.4785V44.1561C57.4785 44.4624 57.3568 44.7562 57.1402 44.9728C56.9236 45.1894 56.6298 45.3111 56.3235 45.3111C56.0172 45.3111 55.7234 45.1894 55.5068 44.9728C55.2902 44.7562 55.1685 44.4624 55.1685 44.1561V42.6232H42.7654V44.1412C42.7654 44.4475 42.6438 44.7413 42.4272 44.9579C42.2106 45.1745 41.9168 45.2962 41.6105 45.2962C41.3041 45.2962 41.0103 45.1745 40.7937 44.9579C40.5771 44.7413 40.4555 44.4475 40.4555 44.1412V42.6232Z" fill="white"/>
<path d="M38.75 25.5C38.75 29.9183 35.1683 33.5 30.75 33.5C26.3317 33.5 22.75 29.9183 22.75 25.5C22.75 21.0817 26.3317 17.5 30.75 17.5C35.1683 17.5 38.75 21.0817 38.75 25.5Z" fill="white"/>
</svg>
