<svg width="22" height="26" viewBox="0 0 22 26" fill="none" xmlns="http://www.w3.org/2000/svg">
<path d="M7 25V20.2H14.2V25M5.8 5.8H5.812M15.4 5.8H15.412M10.6 5.8H10.612M10.6 10.6H10.612M10.6 15.4H10.612M15.4 10.6H15.412M15.4 15.4H15.412M5.8 10.6H5.812M5.8 15.4H5.812M3.4 1H17.8C19.1255 1 20.2 2.07452 20.2 3.4V22.6C20.2 23.9255 19.1255 25 17.8 25H3.4C2.07452 25 1 23.9255 1 22.6V3.4C1 2.07452 2.07452 1 3.4 1Z" stroke="#94A3B8" stroke-width="2" stroke-linecap="round" stroke-linejoin="round"/>
</svg>
