<svg width="20" height="21" viewBox="0 0 20 21" fill="none" xmlns="http://www.w3.org/2000/svg">
<path fill-rule="evenodd" clip-rule="evenodd" d="M6.30774 13.8295C10.1527 17.6745 13.7157 18.0955 14.7617 18.1345C16.0257 18.1805 17.3157 17.1485 17.8737 16.0915C16.9837 15.0475 15.8247 14.2375 14.5557 13.3595C13.8067 14.1075 12.8837 15.4975 11.6547 14.9995C10.9557 14.7185 9.22974 13.9235 7.72174 12.4145C6.21274 10.9065 5.41874 9.18046 5.13574 8.48246C4.63774 7.25146 6.03174 6.32646 6.78074 5.57746C5.90274 4.28746 5.10674 3.09846 4.06474 2.25346C2.99274 2.81346 1.95474 4.09346 2.00174 5.37446C2.04074 6.42046 2.46174 9.98346 6.30774 13.8295ZM14.6877 20.1335C13.2477 20.0805 9.16674 19.5165 4.89274 15.2435C0.619742 10.9695 0.056742 6.88946 0.002742 5.44846C-0.077258 3.25246 1.60474 1.11946 3.54774 0.28646C3.78172 0.185427 4.03794 0.14696 4.29127 0.174835C4.5446 0.20271 4.78633 0.295969 4.99274 0.44546C6.60074 1.61846 7.70974 3.39546 8.66274 4.78746C8.86099 5.07691 8.95181 5.42656 8.91949 5.7759C8.88717 6.12525 8.73373 6.4523 8.48574 6.70046L7.12974 8.05746C7.44474 8.75246 8.08574 9.95046 9.13574 11.0005C10.1857 12.0505 11.3837 12.6915 12.0797 13.0065L13.4347 11.6505C13.6839 11.4019 14.0123 11.2487 14.3628 11.2175C14.7133 11.1862 15.0636 11.2789 15.3527 11.4795C16.7727 12.4635 18.4407 13.5565 19.6567 15.1135C19.8184 15.3214 19.9212 15.5689 19.9544 15.8301C19.9877 16.0913 19.9501 16.3567 19.8457 16.5985C19.0087 18.5515 16.8907 20.2145 14.6877 20.1335Z" fill="#94A3B8"/>
</svg>
