<svg width="27" height="26" viewBox="0 0 27 26" fill="none" xmlns="http://www.w3.org/2000/svg">
<path d="M24.8652 26C21.8559 26 18.8828 25.3442 15.9457 24.0327C13.0087 22.7211 10.3365 20.8611 7.92906 18.4528C5.52165 16.0454 3.66217 13.3731 2.35061 10.4361C1.03906 7.49907 0.382799 4.52593 0.381836 1.51667C0.381836 1.08333 0.52628 0.722222 0.815169 0.433333C1.10406 0.144444 1.46517 0 1.8985 0H7.7485C8.08554 0 8.38647 0.114592 8.65128 0.343778C8.9161 0.572963 9.07258 0.843555 9.12072 1.15556L10.0596 6.21111C10.1078 6.5963 10.0957 6.9213 10.0235 7.18611C9.95128 7.45093 9.81887 7.67963 9.62628 7.87222L6.1235 11.4111C6.60498 12.3019 7.1765 13.1623 7.83806 13.9923C8.49961 14.8224 9.2281 15.6231 10.0235 16.3944C10.7698 17.1407 11.5522 17.8331 12.3707 18.4716C13.1892 19.11 14.0559 19.6936 14.9707 20.2222L18.3652 16.8278C18.5818 16.6111 18.8649 16.4489 19.2145 16.341C19.5641 16.2331 19.9069 16.2028 20.2429 16.25L25.2263 17.2611C25.5633 17.3574 25.8402 17.5322 26.0568 17.7854C26.2735 18.0387 26.3818 18.3213 26.3818 18.6333V24.4833C26.3818 24.9167 26.2374 25.2778 25.9485 25.5667C25.6596 25.8556 25.2985 26 24.8652 26Z" fill="white"/>
</svg>
